<?xml version="1.0" encoding="iso-8859-1"?>
<!-- Generator: Adobe Illustrator 19.0.0, SVG Export Plug-In . SVG Version: 6.00 Build 0)  -->
<svg xmlns="http://www.w3.org/2000/svg" xmlns:xlink="http://www.w3.org/1999/xlink" version="1.1" id="Capa_1" x="0px" y="0px" viewBox="0 0 469.333 469.333" style="enable-background:new 0 0 469.333 469.333;" xml:space="preserve" width="512px" height="512px">
<g>
	<g>
		<g>
			<path d="M341.6,209.067c10.667,14.933,10.667,34.133,0,49.067l21.333,21.333c25.6-25.6,25.6-64,0-91.733L341.6,209.067z" fill="#8f8f8f"/>
			<path d="M407.733,142.933L386.4,164.267c38.4,38.4,38.4,98.133,0,138.667l21.333,21.333     C461.067,275.2,461.067,194.133,407.733,142.933z" fill="#8f8f8f"/>
			<path d="M277.6,0H64.267C40.8,0,21.6,19.2,21.6,42.667v384c0,23.467,19.2,42.667,42.667,42.667H277.6     c23.467,0,42.667-19.2,42.667-42.667v-384C320.267,19.2,301.067,0,277.6,0z M277.6,405.333H64.267V64H277.6V405.333z" fill="#8f8f8f"/>
		</g>
	</g>
</g>
<g>
</g>
<g>
</g>
<g>
</g>
<g>
</g>
<g>
</g>
<g>
</g>
<g>
</g>
<g>
</g>
<g>
</g>
<g>
</g>
<g>
</g>
<g>
</g>
<g>
</g>
<g>
</g>
<g>
</g>
</svg>
